<?xml version="1.0" ?><svg id="Notification" style="enable-background:new 0 0 32 32;" version="1.1" viewBox="0 0 32 32" xml:space="preserve" xmlns="http://www.w3.org/2000/svg" xmlns:xlink="http://www.w3.org/1999/xlink"><style type="text/css">
	.st0{fill:#BC923B;}
	.st1{fill:#FBC34E;}
	.st2{fill:#FFFFFF;}
	.st3{fill:#EDB34C;}
</style><g><path class="st0" d="M17,3.879V3c0-0.552-0.448-1-1-1s-1,0.448-1,1v0.876c0.324-0.039,0.652-0.065,0.986-0.065   C16.33,3.811,16.667,3.838,17,3.879z"/><path class="st0" d="M11.481,26.382C11.943,28.448,13.79,30,16,30s4.057-1.552,4.519-3.618H11.481z"/><path class="st1" d="M24.272,20.768V12.07c0-4.212-3.172-7.691-7.272-8.191c-0.333-0.041-0.67-0.068-1.014-0.068   c-0.334,0-0.662,0.026-0.986,0.065c-4.09,0.49-7.273,3.975-7.273,8.194v8.698C7.801,20.745,23.286,20.744,24.272,20.768z    M14.986,7.811c-1.797,0-3.259,1.462-3.259,3.259c0,0.552-0.448,1-1,1s-1-0.448-1-1c0-2.9,2.359-5.259,5.259-5.259   c0.552,0,1,0.448,1,1S15.538,7.811,14.986,7.811z"/><path class="st2" d="M14.986,5.811c-2.9,0-5.259,2.359-5.259,5.259c0,0.552,0.448,1,1,1s1-0.448,1-1   c0-1.797,1.462-3.259,3.259-3.259c0.552,0,1-0.448,1-1S15.538,5.811,14.986,5.811z"/><path class="st3" d="M24.272,20.768c-0.18-0.016-16.363-0.016-16.545,0C6.217,20.814,5,22.049,5,23.57   c0,1.55,1.261,2.812,2.811,2.812h3.67h9.038h3.669c1.55,0,2.812-1.262,2.812-2.812C27,22.049,25.783,20.814,24.272,20.768z"/></g></svg>